<svg width="64" height="64" viewBox="0 0 64 64" fill="none" xmlns="http://www.w3.org/2000/svg">
<path d="M21.3333 49.7778H42.6667V42.6667H28.4444V35.5556H42.6667V28.4444H28.4444V21.3333H42.6667V14.2222H21.3333V49.7778ZM7.11111 64C5.15555 64 3.48207 63.3043 2.09067 61.9129C0.699259 60.5215 0.00237037 58.8468 0 56.8889V7.11111C0 5.15555 0.696889 3.48207 2.09067 2.09067C3.48444 0.699259 5.15793 0.00237037 7.11111 0H56.8889C58.8444 0 60.5191 0.696889 61.9129 2.09067C63.3067 3.48444 64.0024 5.15793 64 7.11111V56.8889C64 58.8444 63.3043 60.5191 61.9129 61.9129C60.5215 63.3067 58.8468 64.0024 56.8889 64H7.11111Z" fill="white"/>
</svg>
