<svg width="64" height="64" viewBox="0 0 64 64" fill="none" xmlns="http://www.w3.org/2000/svg">
<path d="M9.6 9.4C8.75131 9.4 7.93737 9.73714 7.33726 10.3373C6.73714 10.9374 6.4 11.7513 6.4 12.6V41.4C6.4 42.2487 6.73714 43.0626 7.33726 43.6627C7.93737 44.2629 8.75131 44.6 9.6 44.6H54.4C55.2487 44.6 56.0626 44.2629 56.6627 43.6627C57.2629 43.0626 57.6 42.2487 57.6 41.4V12.6C57.6 11.7513 57.2629 10.9374 56.6627 10.3373C56.0626 9.73714 55.2487 9.4 54.4 9.4H9.6ZM9.6 3H54.4C56.9461 3 59.3879 4.01143 61.1882 5.81177C62.9886 7.61212 64 10.0539 64 12.6V41.4C64 43.9461 62.9886 46.3879 61.1882 48.1882C59.3879 49.9886 56.9461 51 54.4 51H9.6C7.05392 51 4.61212 49.9886 2.81177 48.1882C1.01143 46.3879 0 43.9461 0 41.4L0 12.6C0 10.0539 1.01143 7.61212 2.81177 5.81177C4.61212 4.01143 7.05392 3 9.6 3ZM22.4 54.2H41.6C42.4487 54.2 43.2626 54.5371 43.8627 55.1373C44.4629 55.7374 44.8 56.5513 44.8 57.4C44.8 58.2487 44.4629 59.0626 43.8627 59.6627C43.2626 60.2629 42.4487 60.6 41.6 60.6H22.4C21.5513 60.6 20.7374 60.2629 20.1373 59.6627C19.5371 59.0626 19.2 58.2487 19.2 57.4C19.2 56.5513 19.5371 55.7374 20.1373 55.1373C20.7374 54.5371 21.5513 54.2 22.4 54.2Z" fill="white"/>
</svg>
