<svg width="64" height="64" viewBox="0 0 64 64" fill="none" xmlns="http://www.w3.org/2000/svg">
<path fill-rule="evenodd" clip-rule="evenodd" d="M8 8C5.87827 8 3.84344 8.84285 2.34315 10.3431C0.842854 11.8434 0 13.8783 0 16V28C0 30.1217 0.842854 32.1566 2.34315 33.6569C3.84344 35.1571 5.87827 36 8 36H20C20 39.1826 18.7357 42.2348 16.4853 44.4853C14.2348 46.7357 11.1826 48 8 48H4C2.93913 48 1.92172 48.4214 1.17157 49.1716C0.421428 49.9217 0 50.9391 0 52C0 53.0609 0.421428 54.0783 1.17157 54.8284C1.92172 55.5786 2.93913 56 4 56H8C13.3043 56 18.3914 53.8929 22.1421 50.1421C25.8929 46.3914 28 41.3043 28 36V16C28 13.8783 27.1571 11.8434 25.6569 10.3431C24.1566 8.84285 22.1217 8 20 8H8ZM44 8C41.8783 8 39.8434 8.84285 38.3431 10.3431C36.8429 11.8434 36 13.8783 36 16V28C36 30.1217 36.8429 32.1566 38.3431 33.6569C39.8434 35.1571 41.8783 36 44 36H56C56 39.1826 54.7357 42.2348 52.4853 44.4853C50.2348 46.7357 47.1826 48 44 48H40C38.9391 48 37.9217 48.4214 37.1716 49.1716C36.4214 49.9217 36 50.9391 36 52C36 53.0609 36.4214 54.0783 37.1716 54.8284C37.9217 55.5786 38.9391 56 40 56H44C49.3043 56 54.3914 53.8929 58.1421 50.1421C61.8929 46.3914 64 41.3043 64 36V16C64 13.8783 63.1571 11.8434 61.6569 10.3431C60.1566 8.84285 58.1217 8 56 8H44Z" fill="white"/>
</svg>
