<svg width="96" height="64" viewBox="0 0 96 64" fill="none" xmlns="http://www.w3.org/2000/svg">
<path d="M48.8266 27.558C49.5566 28.0464 50.155 28.7072 50.5688 29.4818C50.9826 30.2565 51.1991 31.1212 51.1991 31.9995C51.1991 32.8777 50.9826 33.7424 50.5688 34.5171C50.155 35.2918 49.5566 35.9525 48.8266 36.4409L7.85937 63.1727C4.44809 65.3934 0 62.8783 0 58.7249V5.27408C0 1.12064 4.44809 -1.39446 7.85937 0.826251L48.8266 27.558Z" fill="white"/>
<path d="M93.6277 27.5588C94.3576 28.0472 94.956 28.708 95.3698 29.4826C95.7836 30.2573 96.0001 31.122 96.0001 32.0003C96.0001 32.8785 95.7836 33.7432 95.3698 34.5179C94.956 35.2926 94.3576 35.9533 93.6277 36.4417L52.6604 63.1735C49.2491 65.3942 44.801 62.8791 44.801 58.7257V5.27489C44.801 1.12144 49.2491 -1.39366 52.6604 0.827056L93.6277 27.5588Z" fill="white"/>
</svg>
