<svg width="64" height="64" viewBox="0 0 64 64" fill="none" xmlns="http://www.w3.org/2000/svg">
<path d="M10.4689 64C9.39429 63.998 8.3387 63.7181 7.40597 63.1878C5.30568 62.0052 4 59.7096 4 57.2174V6.78288C4 4.28376 5.30568 1.99508 7.40597 0.812477C8.36091 0.267151 9.44574 -0.0132835 10.5471 0.000483541C11.6484 0.0142506 12.7258 0.321715 13.6666 0.890738L57.0464 26.6924C57.9505 27.2556 58.6958 28.0378 59.2124 28.9656C59.729 29.8934 60 30.9364 60 31.9967C60 33.057 59.729 34.0999 59.2124 35.0277C58.6958 35.9555 57.9505 36.7377 57.0464 37.301L13.6596 63.1096C12.6968 63.688 11.594 63.9957 10.4689 64Z" fill="white"/>
</svg>
