<svg width="96" height="64" viewBox="0 0 96 64" fill="none" xmlns="http://www.w3.org/2000/svg">
<path d="M47.1734 27.558C46.4434 28.0464 45.845 28.7072 45.4312 29.4818C45.0174 30.2565 44.8009 31.1212 44.8009 31.9995C44.8009 32.8777 45.0174 33.7424 45.4312 34.5171C45.845 35.2918 46.4434 35.9525 47.1734 36.4409L88.1406 63.1727C91.5519 65.3934 96 62.8783 96 58.7249V5.27408C96 1.12064 91.5519 -1.39446 88.1406 0.826251L47.1734 27.558Z" fill="white"/>
<path d="M2.37235 27.5588C1.64236 28.0472 1.04399 28.708 0.630193 29.4826C0.216394 30.2573 -8.1592e-05 31.122 -8.1592e-05 32.0003C-8.1592e-05 32.8785 0.216394 33.7432 0.630193 34.5179C1.04399 35.2926 1.64236 35.9533 2.37235 36.4417L43.3396 63.1735C46.7509 65.3942 51.199 62.8791 51.199 58.7257V5.27489C51.199 1.12144 46.7509 -1.39366 43.3396 0.827056L2.37235 27.5588Z" fill="white"/>
</svg>
