<svg width="69" height="65" viewBox="0 0 69 65" fill="none" xmlns="http://www.w3.org/2000/svg">
<path d="M63.1316 23.1114C64.4661 23.1114 65.7528 23.6101 66.7407 24.5101C67.7285 25.4101 68.3468 26.6469 68.4749 27.9793L68.5 28.4963V42.8561C68.5 47.0089 66.9057 51.0022 64.048 54.007C61.1904 57.0118 57.2889 58.7974 53.1535 58.993L52.3947 59.011H22.1884L22.1168 60.131L22.0775 60.6336C21.8771 63.2148 19.3968 64.8339 17.3139 63.739L16.1901 63.1358L14.8731 62.3855L14.1465 61.9583L12.5754 60.9926C11.4562 60.2836 10.3559 59.545 9.27558 58.7776L7.89768 57.7724L6.74168 56.8929L6.25137 56.5088C4.50126 55.1087 4.56926 52.2188 6.43032 50.7433L6.91705 50.3592L8.06232 49.4904L9.42232 48.5032L10.9899 47.4226C11.8311 46.8593 12.683 46.3123 13.5453 45.782L15.0699 44.8665L16.412 44.109L17.5429 43.4987C19.608 42.4218 21.8627 43.8039 22.0596 46.2128L22.1956 48.2411H52.3947C53.7293 48.241 55.0159 47.7424 56.0038 46.8424C56.9917 45.9424 57.61 44.7056 57.7381 43.3731L57.7632 42.8561V28.4963C57.7632 27.0681 58.3288 25.6984 59.3355 24.6886C60.3423 23.6787 61.7078 23.1114 63.1316 23.1114ZM51.6861 0.433562L52.8099 1.03668L54.1269 1.78698C54.3655 1.921 54.6077 2.0634 54.8535 2.21418L56.4246 3.17988C57.5438 3.88894 58.6441 4.62753 59.7244 5.39489L61.1023 6.40008L62.2583 7.27962L62.7486 7.66375C64.4987 9.06383 64.4307 11.9538 62.5697 13.4292L62.0829 13.8134L60.9377 14.6821L59.5777 15.6694C58.2321 16.6194 56.8571 17.5269 55.4547 18.3906L53.9301 19.306L52.588 20.0635L51.4571 20.6738C49.392 21.7508 47.1373 20.3686 46.944 17.9598L46.8008 15.9314H16.6053C15.1815 15.9314 13.816 16.4988 12.8092 17.5086C11.8024 18.5185 11.2368 19.8882 11.2368 21.3164V35.6762C11.2368 37.1044 10.6712 38.4741 9.66447 39.484C8.65769 40.4938 7.29221 41.0612 5.86842 41.0612C4.44463 41.0612 3.07915 40.4938 2.07237 39.484C1.0656 38.4741 0.5 37.1044 0.5 35.6762V21.3164C0.5 17.0318 2.1968 12.9228 5.21712 9.89318C8.23744 6.86356 12.3339 5.16154 16.6053 5.16154H46.8116L46.9225 3.53888C47.1229 0.957696 49.6032 -0.661376 51.6861 0.433562Z" fill="white"/>
</svg>
