<svg width="64" height="64" viewBox="0 0 64 64" fill="none" xmlns="http://www.w3.org/2000/svg">
<path d="M50.88 28.48C40.64 22.4 23.52 21.76 13.76 24.8C12.16 25.28 10.56 24.32 10.08 22.88C9.6 21.28 10.56 19.68 12 19.2C23.36 15.84 42.08 16.48 53.92 23.52C55.36 24.32 55.84 26.24 55.04 27.68C54.24 28.8 52.32 29.28 50.88 28.48ZM50.56 37.44C49.76 38.56 48.32 39.04 47.2 38.24C38.56 32.96 25.44 31.36 15.36 34.56C14.08 34.88 12.64 34.24 12.32 32.96C12 31.68 12.64 30.24 13.92 29.92C25.6 26.4 40 28.16 49.92 34.24C50.88 34.72 51.36 36.32 50.56 37.44ZM46.72 46.24C46.08 47.2 44.96 47.52 44 46.88C36.48 42.24 27.04 41.28 15.84 43.84C14.72 44.16 13.76 43.36 13.44 42.4C13.12 41.28 13.92 40.32 14.88 40C27.04 37.28 37.6 38.4 45.92 43.52C47.04 44 47.2 45.28 46.72 46.24ZM32 0C27.7977 0 23.6365 0.827705 19.7541 2.43586C15.8717 4.04401 12.3441 6.40111 9.37258 9.37258C3.37142 15.3737 0 23.5131 0 32C0 40.4869 3.37142 48.6263 9.37258 54.6274C12.3441 57.5989 15.8717 59.956 19.7541 61.5641C23.6365 63.1723 27.7977 64 32 64C40.4869 64 48.6263 60.6286 54.6274 54.6274C60.6286 48.6263 64 40.4869 64 32C64 27.7977 63.1723 23.6365 61.5641 19.7541C59.956 15.8717 57.5989 12.3441 54.6274 9.37258C51.6559 6.40111 48.1283 4.04401 44.2459 2.43586C40.3635 0.827705 36.2023 0 32 0Z" fill="white"/>
</svg>
